<?xml version="1.0" standalone="no"?>
<!DOCTYPE svg PUBLIC "-//W3C//DTD SVG 20010904//EN"
 "http://www.w3.org/TR/2001/REC-SVG-20010904/DTD/svg10.dtd">
<svg version="1.0" xmlns="http://www.w3.org/2000/svg"
 width="300.000000pt" height="300.000000pt" viewBox="0 0 300.000000 300.000000"
 preserveAspectRatio="xMidYMid meet">
<metadata>
Created by potrace 1.14, written by Peter Selinger 2001-2017
</metadata>
<g transform="translate(0.000000,300.000000) scale(0.100000,-0.100000)"
fill="#000000" stroke="none">
<path d="M674 2281 c-73 -34 -116 -98 -116 -176 0 -56 14 -86 81 -179 66 -91
97 -126 111 -126 13 0 121 133 160 196 40 67 47 121 21 180 -20 45 -66 91
-105 108 -41 16 -111 15 -152 -3z m48 -128 c24 -38 59 -89 77 -114 30 -42 34
-69 13 -69 -4 0 -25 29 -45 65 -21 36 -44 65 -51 65 -18 0 -56 65 -56 96 0 39
14 29 62 -43z m99 53 c5 3 9 0 9 -6 0 -6 5 -8 11 -4 12 7 12 6 -10 -37 -11
-22 -48 -49 -66 -49 -3 0 -5 12 -5 26 0 29 42 94 48 76 2 -7 8 -10 13 -6z
m-106 -196 c-21 -34 -29 -39 -41 -30 -12 11 -9 18 17 52 42 52 61 36 24 -22z"/>
<path d="M792 2188 c-18 -18 -14 -32 5 -17 15 12 16 12 10 -5 -6 -16 -5 -17 8
-6 16 13 21 35 6 26 -5 -4 -11 -1 -13 4 -2 7 -8 6 -16 -2z"/>
<path d="M1713 1892 c-41 -6 -48 -28 -49 -159 -1 -114 -3 -126 -24 -148 l-22
-24 23 -29 c22 -27 28 -29 79 -24 129 11 234 -82 249 -220 1 -5 86 -8 189 -8
l188 0 23 31 c34 45 79 69 134 69 l47 0 0 93 c-1 127 -4 130 -127 133 -54 1
-101 2 -104 3 -4 0 -6 53 -5 116 l1 115 -27 0 -27 0 -3 -117 -3 -118 -63 0
c-34 -1 -67 2 -71 5 -5 3 -34 62 -65 131 -41 90 -64 130 -82 139 -22 13 -201
20 -261 12z m245 -82 c15 -22 92 -188 92 -200 0 -3 -69 -5 -152 -5 -124 0
-154 3 -159 14 -3 8 -5 55 -4 103 3 115 9 120 123 115 73 -3 85 -6 100 -27z"/>
<path d="M170 1559 l0 -191 -34 5 c-47 6 -61 -6 -57 -50 1 -10 142 -13 672
-13 l670 0 -3 33 c-3 31 -5 32 -45 31 l-43 -1 0 188 0 189 -580 0 -580 0 0
-191z m215 -24 l0 -69 -45 1 c-25 1 -48 2 -52 2 -9 1 -11 125 -3 132 2 3 26 5
52 4 l48 -1 0 -69z m215 46 c3 -14 3 -45 0 -69 -5 -45 -5 -45 -45 -47 -61 -3
-63 0 -60 68 1 34 3 64 4 68 0 3 22 5 48 4 41 0 48 -4 53 -24z m210 20 c5 -1
5 -64 1 -122 -1 -12 -11 -15 -48 -13 -27 1 -51 2 -54 3 -8 1 -5 125 3 131 6 5
77 5 98 1z m245 -16 c2 -11 3 -63 2 -115 l-2 -95 -68 -1 -67 -1 0 112 c0 61 2
114 4 116 3 3 32 5 66 5 53 0 61 -3 65 -21z m160 -95 l0 -115 -66 0 -66 0 2
115 c1 63 3 115 4 115 0 1 29 1 64 0 l62 0 0 -115z"/>
<path d="M1669 1464 c-134 -40 -174 -214 -75 -322 89 -99 262 -69 321 55 51
106 -12 243 -124 273 -43 11 -67 10 -122 -6z m138 -106 c46 -43 49 -105 7
-149 -67 -70 -179 -30 -186 67 -6 92 110 145 179 82z"/>
<path d="M2440 1332 c-68 -34 -91 -120 -51 -185 72 -117 262 -56 248 80 -10
97 -108 150 -197 105z m106 -77 c54 -54 -19 -132 -79 -84 -49 38 -24 104 41
108 7 1 24 -10 38 -24z"/>
<path d="M403 1208 c-31 -15 -57 -69 -49 -102 11 -45 49 -76 94 -76 98 0 135
110 58 172 -23 19 -70 22 -103 6z"/>
<path d="M1001 1204 c-29 -21 -49 -68 -43 -100 8 -42 50 -74 96 -74 56 1 87
28 93 83 4 35 1 48 -18 71 -31 35 -93 45 -128 20z"/>
<path d="M218 917 c-9 -7 -20 -44 -27 -87 -7 -41 -14 -85 -18 -98 -4 -18 -2
-21 13 -15 24 9 34 23 34 51 0 12 5 22 10 22 6 0 9 -3 9 -7 -1 -5 -1 -20 0
-35 1 -23 6 -28 26 -28 17 0 25 6 26 18 0 9 2 24 4 32 2 8 8 39 14 69 6 30 13
57 16 59 2 3 4 -36 2 -87 -2 -87 -1 -91 19 -91 15 0 24 8 28 25 4 15 20 54 37
88 16 34 27 67 25 74 -10 25 -34 13 -49 -24 l-16 -38 0 38 c-1 35 -3 37 -26
31 -14 -3 -25 -2 -25 3 0 15 -30 11 -31 -4 -1 -7 -3 -17 -4 -23 -1 -5 -3 -20
-4 -32 -1 -19 -3 -20 -11 -8 -5 8 -10 25 -10 36 0 31 -22 47 -42 31z"/>
<path d="M658 922 c-16 -2 -28 -6 -28 -10 -1 -4 -9 -50 -20 -102 -10 -52 -18
-96 -17 -96 1 -1 26 2 54 7 35 7 59 6 72 0 30 -16 80 5 88 37 10 38 5 53 -24
81 -18 17 -22 26 -13 35 8 8 13 7 19 -3 7 -10 13 -11 30 -1 45 23 50 12 32
-78 -14 -68 -15 -82 -3 -77 7 3 19 5 27 5 8 0 17 28 25 80 8 51 17 80 25 80 7
0 15 9 18 20 5 18 0 20 -44 20 -35 0 -51 -4 -55 -15 -6 -14 -8 -13 -19 1 -9
13 -20 15 -45 10 -73 -14 -90 -64 -39 -110 23 -21 28 -31 20 -39 -9 -9 -17 -8
-31 1 -17 10 -21 9 -31 -9 -8 -16 -13 -18 -19 -9 -4 7 -13 9 -20 5 -8 -5 -11
1 -8 21 2 16 9 30 16 30 26 3 29 4 29 19 0 8 -9 15 -19 15 -32 0 -18 45 16 51
11 2 21 9 23 15 5 14 -22 21 -59 16z"/>
<path d="M1001 920 c-33 -5 -34 -7 -62 -100 -16 -52 -29 -98 -29 -101 0 -15
49 5 53 22 7 27 27 24 27 -5 0 -19 4 -22 25 -18 24 4 25 8 26 76 0 39 2 80 4
90 6 31 -7 42 -44 36z m5 -48 c-3 -5 -6 -25 -8 -45 -1 -21 -6 -37 -11 -37 -5
0 -6 17 -2 37 7 39 13 53 21 53 3 0 3 -4 0 -8z"/>
<path d="M1373 922 c-34 -3 -39 -12 -69 -117 l-16 -60 -16 32 c-15 31 -14 34
5 55 24 26 32 57 20 76 -9 13 -75 16 -93 4 -6 -4 -16 -38 -23 -77 -6 -38 -14
-82 -17 -98 -6 -25 -5 -27 17 -19 15 6 27 22 33 43 l9 34 10 -38 c7 -31 13
-38 28 -34 11 3 19 2 19 -3 0 -15 50 3 55 21 9 27 25 23 25 -5 0 -23 3 -24 30
-16 19 5 28 5 25 -1 -8 -12 2 -12 26 1 12 7 19 21 19 40 0 17 5 30 10 30 6 0
10 -16 10 -35 0 -28 4 -35 19 -35 21 0 34 14 38 40 1 8 7 43 13 77 11 57 14
61 28 47 14 -14 14 -24 0 -95 l-15 -79 26 7 c14 3 27 6 28 7 0 1 4 24 7 51 4
28 9 59 11 70 2 11 4 23 4 28 1 4 8 7 16 7 8 0 15 9 15 19 0 16 -9 20 -54 23
-34 2 -52 -1 -48 -7 3 -5 -2 -4 -11 4 -19 15 -23 8 -37 -53 l-7 -31 -8 42
c-13 76 -57 60 -69 -24 -18 -137 -30 -150 -23 -25 3 50 2 93 -1 95 -4 1 -21 1
-39 -1z m-103 -52 c0 -5 -9 -14 -20 -20 -15 -8 -20 -8 -20 3 0 8 3 17 7 20 10
10 33 8 33 -3z m96 -78 c-12 -11 -16 6 -9 39 l8 34 3 -33 c2 -19 1 -36 -2 -40z"/>
<path d="M36 905 c-3 -8 2 -19 11 -24 15 -8 15 -15 1 -87 -9 -44 -15 -80 -13
-82 1 -1 13 2 27 7 20 8 26 18 31 58 4 26 9 57 11 68 3 11 5 23 5 26 1 4 8 10
17 13 13 5 15 0 9 -36 -4 -24 -9 -56 -11 -73 -3 -16 -7 -38 -10 -47 -4 -13 0
-16 17 -13 12 2 23 6 25 7 4 5 14 63 28 161 5 32 3 37 -13 37 -11 0 -22 -6
-24 -12 -4 -10 -6 -10 -6 0 -1 18 -97 16 -105 -3z"/>
<path d="M499 909 c-1 -5 -2 -12 -3 -16 -3 -12 -19 -118 -18 -120 0 -2 -3 -15
-7 -31 -8 -26 -7 -28 14 -24 17 3 26 14 33 41 l9 36 9 -34 c11 -38 21 -46 43
-32 12 8 12 15 -1 47 -14 36 -14 39 4 54 12 9 20 29 21 50 l2 35 -52 1 c-29 1
-54 -3 -54 -7z m66 -49 c-10 -11 -21 -20 -26 -20 -4 0 -5 9 -2 20 3 12 14 20
26 20 19 0 20 -1 2 -20z"/>
<path d="M1077 913 c-9 -16 -29 -149 -26 -173 3 -20 11 -26 35 -28 42 -4 65
24 81 101 18 86 17 107 -5 107 -14 0 -21 -16 -35 -82 -9 -45 -19 -84 -22 -86
-15 -15 -15 15 -1 77 9 38 16 75 16 80 0 12 -36 15 -43 4z"/>
<path d="M1825 910 c-11 -4 -31 -7 -45 -5 -14 1 -17 0 -8 -2 17 -4 17 -6 2
-36 -9 -17 -17 -50 -18 -74 0 -34 -5 -43 -21 -46 -11 -2 -7 -3 10 -2 16 1 37
-2 45 -7 18 -12 100 7 100 22 0 6 21 11 48 12 l47 1 -45 7 c-43 6 -44 7 -20
17 22 10 22 12 5 13 -17 0 -17 2 -5 10 11 7 11 10 2 10 -7 0 -10 5 -6 11 3 6
22 9 40 7 19 -2 34 0 34 4 0 4 -19 8 -41 8 -38 0 -40 2 -28 17 10 11 10 14 2
9 -7 -4 -13 -3 -13 3 0 5 -10 13 -22 17 -34 12 -41 12 -63 4z m35 -54 c0 -44
-14 -76 -33 -76 -17 0 -19 5 -14 37 6 33 20 52 40 53 4 0 7 -6 7 -14z"/>
<path d="M2487 893 c-4 -3 -21 -6 -39 -6 -18 0 -26 -2 -17 -4 13 -3 14 -9 5
-38 -8 -27 -16 -35 -36 -36 l-25 -1 25 -7 c26 -7 34 -30 15 -43 -5 -4 -1 -7
10 -7 11 0 29 -1 40 -4 24 -5 75 11 75 24 0 5 21 10 48 11 l47 1 -42 4 c-42 4
-61 22 -25 24 10 0 12 3 5 6 -7 2 -13 14 -13 26 0 12 -4 28 -8 35 -10 14 -55
25 -65 15z m19 -77 c-9 -35 -38 -35 -32 -1 7 36 16 49 28 37 6 -6 8 -22 4 -36z"/>
<path d="M2590 896 c0 -2 11 -6 25 -8 13 -3 22 -1 19 3 -5 9 -44 13 -44 5z"/>
<path d="M2655 885 c-3 -8 -7 -22 -10 -31 -4 -12 -14 -15 -36 -12 -16 3 -32 1
-35 -4 -3 -5 -2 -8 3 -7 4 1 22 1 38 0 29 -1 31 -3 27 -37 -4 -29 -8 -35 -23
-31 -11 3 -21 2 -23 -2 -3 -4 26 -8 64 -9 70 -2 100 11 100 43 0 9 15 15 43
18 l42 4 -40 1 c-41 2 -41 2 -37 37 4 33 6 35 44 35 l39 0 -5 -54 c-4 -30 -9
-62 -12 -70 -5 -12 0 -16 19 -16 17 0 27 7 31 23 7 21 8 21 15 3 4 -11 18 -21
30 -23 21 -3 23 0 18 24 -3 15 2 37 10 50 12 19 13 29 5 48 -11 23 -15 24
-121 24 -121 1 -113 5 -126 -71 -10 -62 -29 -47 -21 17 6 51 5 55 -14 55 -11
0 -23 -7 -25 -15z m259 -46 c-3 -5 -10 -7 -15 -3 -5 3 -7 10 -3 15 3 5 10 7
15 3 5 -3 7 -10 3 -15z"/>
<path d="M1725 880 c-3 -5 -1 -10 4 -10 6 0 11 5 11 10 0 6 -2 10 -4 10 -3 0
-8 -4 -11 -10z"/>
<path d="M1960 886 c0 -2 7 -6 15 -10 8 -3 15 -1 15 4 0 6 -7 10 -15 10 -8 0
-15 -2 -15 -4z"/>
<path d="M2000 857 c0 -26 -3 -29 -25 -25 -14 3 -25 1 -25 -3 0 -5 10 -9 21
-9 20 0 21 -4 15 -40 -6 -38 -5 -40 19 -40 18 0 25 5 25 20 0 26 17 26 25 -1
5 -13 14 -19 28 -17 17 2 23 12 29 48 4 25 9 57 12 73 5 23 2 27 -19 27 -21 0
-25 -5 -25 -27 l0 -28 -20 25 c-10 14 -28 26 -39 26 -17 1 -21 -5 -21 -29z"/>
<path d="M2198 883 c12 -2 30 -2 40 0 9 3 -1 5 -23 4 -22 0 -30 -2 -17 -4z"/>
<path d="M2256 874 c-4 -11 -14 -15 -31 -12 -13 3 -22 1 -19 -3 3 -5 21 -9 40
-9 29 0 34 -3 34 -23 0 -20 -4 -23 -37 -21 l-38 3 35 -7 c31 -6 35 -10 32 -33
-3 -23 0 -27 22 -25 17 0 26 7 26 18 0 9 6 19 13 21 9 4 9 6 0 6 -9 1 -10 8
-3 25 5 13 6 27 3 30 -4 3 3 6 15 6 15 0 22 6 22 20 0 18 -7 20 -54 20 -40 0
-55 -4 -60 -16z"/>
<path d="M2400 866 c0 -2 7 -6 15 -10 8 -3 15 -1 15 4 0 6 -7 10 -15 10 -8 0
-15 -2 -15 -4z"/>
<path d="M2570 866 c0 -2 16 -6 35 -8 19 -2 35 0 35 4 0 4 -16 8 -35 8 -19 0
-35 -2 -35 -4z"/>
<path d="M2793 863 c9 -2 25 -2 35 0 9 3 1 5 -18 5 -19 0 -27 -2 -17 -5z"/>
<path d="M1735 850 c3 -5 8 -10 11 -10 2 0 4 5 4 10 0 6 -5 10 -11 10 -5 0 -7
-4 -4 -10z"/>
<path d="M2809 837 c7 -7 14 -8 21 -1 6 6 2 10 -12 11 -16 2 -18 -1 -9 -10z"/>
<path d="M2220 836 c0 -2 7 -6 15 -10 8 -3 15 -1 15 4 0 6 -7 10 -15 10 -8 0
-15 -2 -15 -4z"/>
<path d="M2373 833 c9 -2 25 -2 35 0 9 3 1 5 -18 5 -19 0 -27 -2 -17 -5z"/>
<path d="M1703 823 c9 -2 25 -2 35 0 9 3 1 5 -18 5 -19 0 -27 -2 -17 -5z"/>
<path d="M2598 813 c6 -2 18 -2 25 0 6 3 1 5 -13 5 -14 0 -19 -2 -12 -5z"/>
<path d="M1695 801 c-2 -4 10 -8 26 -9 16 -1 29 -1 29 2 0 7 -50 13 -55 7z"/>
<path d="M2230 780 c-12 -8 -10 -10 8 -10 13 0 20 4 17 10 -7 12 -6 12 -25 0z"/>
<path d="M2380 786 c0 -2 7 -6 15 -10 8 -3 15 -1 15 4 0 6 -7 10 -15 10 -8 0
-15 -2 -15 -4z"/>
<path d="M2783 783 c9 -2 25 -2 35 0 9 3 1 5 -18 5 -19 0 -27 -2 -17 -5z"/>
<path d="M1698 773 c7 -3 16 -2 19 1 4 3 -2 6 -13 5 -11 0 -14 -3 -6 -6z"/>
<path d="M2785 759 c-3 -4 2 -6 10 -5 21 3 28 13 10 13 -9 0 -18 -4 -20 -8z"/>
<path d="M2210 756 c0 -2 11 -6 25 -8 13 -3 22 -1 19 3 -5 9 -44 13 -44 5z"/>
<path d="M1923 743 c9 -2 25 -2 35 0 9 3 1 5 -18 5 -19 0 -27 -2 -17 -5z"/>
</g>
</svg>
